<mxfile host="app.diagrams.net" agent="Mozilla/5.0 (Macintosh; Intel Mac OS X 10_15_7) AppleWebKit/537.36 (KHTML, like Gecko) Chrome/134.0.0.0 Safari/537.36" version="25.0.3">
  <diagram id="vuYaobRJnIPKzezt4iJj" name="Page-1">
    <mxGraphModel dx="1033" dy="654" grid="1" gridSize="10" guides="1" tooltips="1" connect="1" arrows="1" fold="1" page="1" pageScale="1" pageWidth="850" pageHeight="1100" math="0" shadow="0">
      <root>
        <mxCell id="0" />
        <mxCell id="1" parent="0" />
        <mxCell id="2w303C29MtO2OuUROvlb-19" value="" style="triangle;whiteSpace=wrap;html=1;rotation=-90;strokeWidth=4;fillColor=#f8cecc;strokeColor=#000000;" vertex="1" parent="1">
          <mxGeometry x="381.25" y="340" width="87.5" height="107.5" as="geometry" />
        </mxCell>
        <mxCell id="2w303C29MtO2OuUROvlb-20" value="" style="shape=trapezoid;perimeter=trapezoidPerimeter;whiteSpace=wrap;html=1;fixedSize=1;size=40;strokeWidth=4;fillColor=#ffe6cc;strokeColor=#000000;" vertex="1" parent="1">
          <mxGeometry x="330" y="438.75" width="190" height="60" as="geometry" />
        </mxCell>
        <mxCell id="2w303C29MtO2OuUROvlb-21" value="" style="shape=trapezoid;perimeter=trapezoidPerimeter;whiteSpace=wrap;html=1;fixedSize=1;size=40;strokeWidth=4;fillColor=#d5e8d4;strokeColor=#000000;" vertex="1" parent="1">
          <mxGeometry x="290" y="498.75" width="270" height="60" as="geometry" />
        </mxCell>
        <mxCell id="2w303C29MtO2OuUROvlb-22" value="" style="shape=trapezoid;perimeter=trapezoidPerimeter;whiteSpace=wrap;html=1;fixedSize=1;size=40;strokeWidth=4;fillColor=#e1d5e7;strokeColor=#000000;" vertex="1" parent="1">
          <mxGeometry x="250" y="558.75" width="350" height="60" as="geometry" />
        </mxCell>
        <mxCell id="2w303C29MtO2OuUROvlb-23" value="" style="shape=trapezoid;perimeter=trapezoidPerimeter;whiteSpace=wrap;html=1;fixedSize=1;size=40;strokeWidth=4;fillColor=#dae8fc;strokeColor=#000000;" vertex="1" parent="1">
          <mxGeometry x="210" y="618.75" width="430" height="60" as="geometry" />
        </mxCell>
        <mxCell id="2w303C29MtO2OuUROvlb-24" value="Physical Infrastructure" style="text;html=1;align=center;verticalAlign=middle;whiteSpace=wrap;rounded=0;fontStyle=1" vertex="1" parent="1">
          <mxGeometry x="342.5" y="628.75" width="165" height="40" as="geometry" />
        </mxCell>
        <mxCell id="2w303C29MtO2OuUROvlb-25" value="Computing, Network, Storage Resources" style="text;html=1;align=center;verticalAlign=middle;whiteSpace=wrap;rounded=0;fontStyle=1" vertex="1" parent="1">
          <mxGeometry x="290" y="558.75" width="270" height="60" as="geometry" />
        </mxCell>
        <mxCell id="2w303C29MtO2OuUROvlb-26" value="Platform Orchestration" style="text;html=1;align=center;verticalAlign=middle;whiteSpace=wrap;rounded=0;fontStyle=1" vertex="1" parent="1">
          <mxGeometry x="352.5" y="498.75" width="145" height="60" as="geometry" />
        </mxCell>
        <mxCell id="2w303C29MtO2OuUROvlb-27" value="Super Fancy App" style="text;html=1;align=center;verticalAlign=middle;whiteSpace=wrap;rounded=0;fontStyle=1" vertex="1" parent="1">
          <mxGeometry x="365" y="453.75" width="120" height="30" as="geometry" />
        </mxCell>
        <mxCell id="2w303C29MtO2OuUROvlb-28" value="&lt;font style=&quot;font-size: 11px;&quot;&gt;IA Agents &amp;amp; Services&lt;/font&gt;" style="text;html=1;align=center;verticalAlign=middle;whiteSpace=wrap;rounded=0;fontStyle=1" vertex="1" parent="1">
          <mxGeometry x="395" y="398.75" width="60" height="30" as="geometry" />
        </mxCell>
      </root>
    </mxGraphModel>
  </diagram>
</mxfile>
